<svg id="Layer_3" data-name="Layer 3" xmlns="http://www.w3.org/2000/svg" viewBox="0 0 346.49 382.66"><defs><style>.cls-1,.cls-2,.cls-3,.cls-4,.cls-5,.cls-6{fill:none;stroke-miterlimit:10;}.cls-1,.cls-2,.cls-3,.cls-4,.cls-5{stroke:#231f20;}.cls-2{stroke-width:5px;}.cls-3{stroke-width:4px;}.cls-4{stroke-width:3px;}.cls-5{stroke-width:2px;}.cls-6{stroke:#fff;}</style></defs><path class="cls-1" d="M584.11,369.67" transform="translate(-326.76 -247.37)"/><path class="cls-2" d="M518.28,422.84c5.93.13-8.58.29-10.82.26L472.51,423a5.35,5.35,0,0,0-4.83,7.8l28.82,55.92a4.73,4.73,0,0,1-4.15,6.89l-40.39.49h0L338.45,290l4.14-7L390,283l4,2.14,53.79,82.36a4.73,4.73,0,0,0,4,2.14h43c3.75,0,5.74.21,6.68.61" transform="translate(-326.76 -247.37)"/><path class="cls-3" d="M358.1,462.93s53.62,0,53.61,0L404,452.16H350.37l7.7,10.76Z" transform="translate(-326.76 -247.37)"/><path class="cls-4" d="M341.79,442.23h51.53l-4.12-6c-.71-1-52.31,0-52.31,0Z" transform="translate(-326.76 -247.37)"/><path class="cls-2" d="M352.93,435.1" transform="translate(-326.76 -247.37)"/><polygon class="cls-5" points="56.88 180.92 4.64 180.92 2.08 177.73 54.88 177.73 56.88 180.92"/><path class="cls-2" d="M500,617.48c-41.24.24-101.77-.36-144.47-.36-.26,0-.55,5.09-.8,8.54a2,2,0,0,1-3,1.6l-14.34-8.18a2,2,0,0,1-.93-1.14,80.75,80.75,0,0,1-1.9-8.67c-.09-9.83,0-16.86,0-26.69,0-1.42.85-2.57,1.89-2.57,16.31,0,69.25,0,85.56,0l14.43.1c-.36-.52-.72-1-1.09-1.57.35.53.71,1.06,1.09,1.57Q408,538.41,379.53,496.69l-13.17-19.3c-1.12-1.64-.26-4.32,1.39-4.31h0c-1.44,0,1.45,0,0,0,17.7-.21,30.53-.22,48.4-.22a1.62,1.62,0,0,1,1.22.6c3.36,3.87,6.13,8.54,9.54,12.33l.14.18c17.9,26.71,35.1,52.45,52.95,78.53a1.72,1.72,0,0,0,1.39.82H500" transform="translate(-326.76 -247.37)"/><path class="cls-2" d="M499.46,361.68h40.47L589.19,285c-6.94,1.72-52,48.21-52,48.21l-22.2-.7-15.5-84.64" transform="translate(-326.76 -247.37)"/><path class="cls-6" d="M401.51,400.21" transform="translate(-326.76 -247.37)"/><path class="cls-1" d="M415.89,369.67" transform="translate(-326.76 -247.37)"/><path class="cls-2" d="M481.72,422.84c-5.93.13,8.58.29,10.82.26l34.95-.13a5.35,5.35,0,0,1,4.83,7.8L503.5,486.69a4.73,4.73,0,0,0,4.15,6.89l40.39.49h0L661.55,290l-4.14-7L610,283l-3.95,2.14L552.3,367.53a4.73,4.73,0,0,1-4,2.14h-43c-3.75,0-5.74.21-6.68.61" transform="translate(-326.76 -247.37)"/><path class="cls-3" d="M641.9,462.93s-53.62,0-53.61,0L596,452.16h53.65l-7.7,10.76Z" transform="translate(-326.76 -247.37)"/><path class="cls-4" d="M658.21,442.23H606.68l4.12-6c.71-1,52.31,0,52.31,0Z" transform="translate(-326.76 -247.37)"/><path class="cls-2" d="M647.07,435.1" transform="translate(-326.76 -247.37)"/><polygon class="cls-5" points="289.6 180.92 341.85 180.92 344.4 177.73 291.61 177.73 289.6 180.92"/><path class="cls-2" d="M500,617.48c41.24.24,101.77-.36,144.47-.36.26,0,.55,5.09.8,8.54a2,2,0,0,0,3,1.6l14.34-8.18a2,2,0,0,0,.93-1.14,80.75,80.75,0,0,0,1.9-8.67c.09-9.83,0-16.86,0-26.69,0-1.42-.85-2.57-1.89-2.57-16.31,0-69.25,0-85.56,0l-14.43.1c.36-.52.72-1,1.09-1.57-.35.53-.71,1.06-1.09,1.57q28.44-41.74,56.91-83.46l13.17-19.3c1.12-1.64.26-4.32-1.39-4.31h0c1.44,0-1.45,0,0,0-17.7-.21-30.53-.22-48.4-.22a1.62,1.62,0,0,0-1.22.6c-3.36,3.87-6.13,8.54-9.54,12.33L573,486c-17.9,26.71-35.1,52.45-53,78.53a1.72,1.72,0,0,1-1.39.82H500" transform="translate(-326.76 -247.37)"/><path class="cls-2" d="M500.54,361.68H460.07L410.81,285c6.94,1.72,52,48.21,52,48.21l22.2-.7,15.5-84.64" transform="translate(-326.76 -247.37)"/><path class="cls-6" d="M598.49,400.21" transform="translate(-326.76 -247.37)"/></svg>